<?xml version="1.0" encoding="UTF-8" standalone="no"?><svg xmlns="http://www.w3.org/2000/svg"
  xmlns:xlink="http://www.w3.org/1999/xlink" contentStyleType="text/css" height="639px" preserveAspectRatio="none"
  style="width:477px;height:639px;background:#FFFFFF;" version="1.1" viewBox="0 0 477 639" width="477px"
  zoomAndPan="magnify">
  <defs />
  <g>
    <rect fill="#A9DCDF" height="220.4688" style="stroke:#6E6E6E;stroke-width:1.0;" width="10" x="398" y="317.8984" />
    <rect fill="#FEFFED" height="339.6719" rx="5" ry="5" style="stroke:#000000;stroke-width:1.5;" width="450.5" x="10"
      y="198.6953" />
    <path
      d="M10,269.9609 L460.5,269.9609 L460.5,533.3672 A5,5 0 0 1 455.5,538.3672 L15,538.3672 A5,5 0 0 1 10,533.3672 L10,269.9609 "
      fill="#FEFFED" style="stroke:none;stroke-width:1.0;" />
    <rect fill="#FEFFED" height="198.4688" rx="5" ry="5" style="stroke:#000000;stroke-width:1.5;" width="430.5" x="20"
      y="332.8984" />
    <path
      d="M20,433.2969 L450.5,433.2969 L450.5,526.3672 A5,5 0 0 1 445.5,531.3672 L25,531.3672 A5,5 0 0 1 20,526.3672 L20,433.2969 "
      fill="#FEFFED" style="stroke:none;stroke-width:1.0;" />
    <line style="stroke:#6E6E6E;stroke-width:0.5;stroke-dasharray:5.0,5.0;" x1="53" x2="53" y1="97.4297"
      y2="555.3672" />
    <line style="stroke:#6E6E6E;stroke-width:0.5;stroke-dasharray:5.0,5.0;" x1="402.5" x2="402.5" y1="97.4297"
      y2="555.3672" /><text fill="#4E4E4E" font-family="sans-serif" font-size="17" lengthAdjust="spacing"
      textLength="40" x="30" y="93.4204">User</text>
    <ellipse cx="53" cy="26.1406" fill="#EEEBDC" rx="8" ry="8" style="stroke:#4E4E4E;stroke-width:0.5;" />
    <path d="M53,34.1406 L53,61.1406 M40,42.1406 L66,42.1406 M53,61.1406 L40,76.1406 M53,61.1406 L66,76.1406 "
      fill="none" style="stroke:#4E4E4E;stroke-width:0.5;" /><text fill="#4E4E4E" font-family="sans-serif"
      font-size="17" lengthAdjust="spacing" textLength="40" x="30" y="570.147">User</text>
    <ellipse cx="53" cy="582.6563" fill="#EEEBDC" rx="8" ry="8" style="stroke:#4E4E4E;stroke-width:0.5;" />
    <path d="M53,590.6563 L53,617.6563 M40,598.6563 L66,598.6563 M53,617.6563 L40,632.6563 M53,617.6563 L66,632.6563 "
      fill="none" style="stroke:#4E4E4E;stroke-width:0.5;" />
    <rect fill="#EEEBDC" height="31.4609" rx="5" ry="5" style="stroke:#4E4E4E;stroke-width:0.5;" width="75" x="365.5"
      y="64.9688" /><text fill="#4E4E4E" font-family="sans-serif" font-size="15" lengthAdjust="spacing" textLength="61"
      x="372.5" y="85.8921">Polygon</text>
    <rect fill="#EEEBDC" height="31.4609" rx="5" ry="5" style="stroke:#4E4E4E;stroke-width:0.5;" width="75" x="365.5"
      y="554.3672" /><text fill="#4E4E4E" font-family="sans-serif" font-size="15" lengthAdjust="spacing" textLength="61"
      x="372.5" y="575.2905">Polygon</text>
    <rect fill="#A9DCDF" height="220.4688" style="stroke:#6E6E6E;stroke-width:1.0;" width="10" x="398" y="317.8984" />
    <line style="stroke:#4E4E4E;stroke-width:1.0;" x1="53" x2="95" y1="128.5625" y2="128.5625" />
    <line style="stroke:#4E4E4E;stroke-width:1.0;" x1="95" x2="95" y1="128.5625" y2="141.5625" />
    <line style="stroke:#4E4E4E;stroke-width:1.0;" x1="54" x2="95" y1="141.5625" y2="141.5625" />
    <polygon fill="#4E4E4E" points="64,137.5625,54,141.5625,64,145.5625,60,141.5625"
      style="stroke:#4E4E4E;stroke-width:1.0;" /><text fill="#000000" font-family="sans-serif" font-size="13"
      lengthAdjust="spacing" textLength="119" x="60" y="123.4966">compute doc hash</text>
    <line style="stroke:#4E4E4E;stroke-width:1.0;" x1="53" x2="95" y1="170.6953" y2="170.6953" />
    <line style="stroke:#4E4E4E;stroke-width:1.0;" x1="95" x2="95" y1="170.6953" y2="183.6953" />
    <line style="stroke:#4E4E4E;stroke-width:1.0;" x1="54" x2="95" y1="183.6953" y2="183.6953" />
    <polygon fill="#4E4E4E" points="64,179.6953,54,183.6953,64,187.6953,60,183.6953"
      style="stroke:#4E4E4E;stroke-width:1.0;" /><text fill="#000000" font-family="sans-serif" font-size="13"
      lengthAdjust="spacing" textLength="336" x="60" y="165.6294">use merkle verify on { merkle root + merkle proof
      }</text>
    <path d="M15,198.6953 L76,198.6953 L76,205.8281 L66,215.8281 L10,215.8281 L10,203.6953 A5,5 0 0 1 15,198.6953 "
      fill="#EEEEEE" style="stroke:#000000;stroke-width:1.5;" />
    <rect fill="none" height="339.6719" rx="5" ry="5" style="stroke:#000000;stroke-width:1.5;" width="450.5" x="10"
      y="198.6953" /><text fill="#000000" font-family="sans-serif" font-size="13" font-weight="bold"
      lengthAdjust="spacing" textLength="21" x="25" y="211.7622">alt</text><text fill="#000000" font-family="sans-serif"
      font-size="11" font-weight="bold" lengthAdjust="spacing" textLength="142" x="91" y="210.9058">["merkle verify
      fails"]</text>
    <line style="stroke:#4E4E4E;stroke-width:1.0;stroke-dasharray:2.0,2.0;" x1="53" x2="95" y1="236.9609"
      y2="236.9609" />
    <line style="stroke:#4E4E4E;stroke-width:1.0;stroke-dasharray:2.0,2.0;" x1="95" x2="95" y1="236.9609"
      y2="249.9609" />
    <line style="stroke:#4E4E4E;stroke-width:1.0;stroke-dasharray:2.0,2.0;" x1="54" x2="95" y1="249.9609"
      y2="249.9609" />
    <polygon fill="#4E4E4E" points="64,245.9609,54,249.9609,64,253.9609,60,249.9609"
      style="stroke:#4E4E4E;stroke-width:1.0;" /><text fill="#000000" font-family="sans-serif" font-size="13"
      lengthAdjust="spacing" textLength="97" x="60" y="231.895">verified = false</text>
    <line style="stroke:#000000;stroke-width:1.0;stroke-dasharray:2.0,2.0;" x1="10" x2="460.5" y1="270.9609"
      y2="270.9609" /><text fill="#000000" font-family="sans-serif" font-size="11" font-weight="bold"
      lengthAdjust="spacing" textLength="172" x="15" y="281.1714">["merkle verify succeeds"]</text>
    <polygon fill="#4E4E4E" points="386,313.8984,396,317.8984,386,321.8984,390,317.8984"
      style="stroke:#4E4E4E;stroke-width:1.0;" />
    <line style="stroke:#4E4E4E;stroke-width:1.0;" x1="53" x2="392" y1="317.8984" y2="317.8984" /><text fill="#000000"
      font-family="sans-serif" font-size="13" lengthAdjust="spacing" textLength="181" x="60" y="312.8325">check merkle
      root existence</text>
    <path d="M25,332.8984 L86,332.8984 L86,340.0313 L76,350.0313 L20,350.0313 L20,337.8984 A5,5 0 0 1 25,332.8984 "
      fill="#EEEEEE" style="stroke:#000000;stroke-width:1.5;" />
    <rect fill="none" height="198.4688" rx="5" ry="5" style="stroke:#000000;stroke-width:1.5;" width="430.5" x="20"
      y="332.8984" /><text fill="#000000" font-family="sans-serif" font-size="13" font-weight="bold"
      lengthAdjust="spacing" textLength="21" x="35" y="345.9653">alt</text><text fill="#000000" font-family="sans-serif"
      font-size="11" font-weight="bold" lengthAdjust="spacing" textLength="201" x="101" y="345.1089">["merkle root does
      not exist"]</text>
    <polygon fill="#4E4E4E" points="64,367.1641,54,371.1641,64,375.1641,60,371.1641"
      style="stroke:#4E4E4E;stroke-width:1.0;" />
    <line style="stroke:#4E4E4E;stroke-width:1.0;stroke-dasharray:2.0,2.0;" x1="58" x2="397" y1="371.1641"
      y2="371.1641" /><text fill="#000000" font-family="sans-serif" font-size="13" lengthAdjust="spacing"
      textLength="22" x="70" y="366.0981">null</text>
    <line style="stroke:#4E4E4E;stroke-width:1.0;stroke-dasharray:2.0,2.0;" x1="53" x2="95" y1="400.2969"
      y2="400.2969" />
    <line style="stroke:#4E4E4E;stroke-width:1.0;stroke-dasharray:2.0,2.0;" x1="95" x2="95" y1="400.2969"
      y2="413.2969" />
    <line style="stroke:#4E4E4E;stroke-width:1.0;stroke-dasharray:2.0,2.0;" x1="54" x2="95" y1="413.2969"
      y2="413.2969" />
    <polygon fill="#4E4E4E" points="64,409.2969,54,413.2969,64,417.2969,60,413.2969"
      style="stroke:#4E4E4E;stroke-width:1.0;" /><text fill="#000000" font-family="sans-serif" font-size="13"
      lengthAdjust="spacing" textLength="97" x="60" y="395.231">verified = false</text>
    <line style="stroke:#000000;stroke-width:1.0;stroke-dasharray:2.0,2.0;" x1="20" x2="450.5" y1="434.2969"
      y2="434.2969" /><text fill="#000000" font-family="sans-serif" font-size="11" font-weight="bold"
      lengthAdjust="spacing" textLength="144" x="25" y="444.5073">["merkle root exists"]</text>
    <polygon fill="#4E4E4E" points="64,477.2344,54,481.2344,64,485.2344,60,481.2344"
      style="stroke:#4E4E4E;stroke-width:1.0;" />
    <line style="stroke:#4E4E4E;stroke-width:1.0;stroke-dasharray:2.0,2.0;" x1="58" x2="397" y1="481.2344"
      y2="481.2344" /><text fill="#000000" font-family="sans-serif" font-size="13" lengthAdjust="spacing"
      textLength="74" x="70" y="476.1685">merkle root</text>
    <line style="stroke:#4E4E4E;stroke-width:1.0;stroke-dasharray:2.0,2.0;" x1="53" x2="95" y1="510.3672"
      y2="510.3672" />
    <line style="stroke:#4E4E4E;stroke-width:1.0;stroke-dasharray:2.0,2.0;" x1="95" x2="95" y1="510.3672"
      y2="523.3672" />
    <line style="stroke:#4E4E4E;stroke-width:1.0;stroke-dasharray:2.0,2.0;" x1="54" x2="95" y1="523.3672"
      y2="523.3672" />
    <polygon fill="#4E4E4E" points="64,519.3672,54,523.3672,64,527.3672,60,523.3672"
      style="stroke:#4E4E4E;stroke-width:1.0;" /><text fill="#000000" font-family="sans-serif" font-size="13"
      lengthAdjust="spacing" textLength="92" x="60" y="505.3013">verified = true</text>
    <rect fill="#FFFFFF" height="11.6406" id="_title" rx="5" ry="5" style="stroke:none;stroke-width:1.0;" width="83"
      x="386.5" y="5" /><text fill="#888888" font-family="sans-serif" font-size="10" lengthAdjust="spacing"
      textLength="83" x="386.5" y="14.2822">Verify full proof</text>
  </g>
</svg>